<svg width="25" height="24" viewBox="0 0 25 24" fill="none" xmlns="http://www.w3.org/2000/svg">
<path fill-rule="evenodd" clip-rule="evenodd" d="M12.9246 3.5973C12.5755 3.9511 12.5792 4.52093 12.933 4.87007L17.9722 9.84291H14.0722C12.15 9.8429 10.6267 9.84289 9.42196 9.98619C8.18481 10.1333 7.16626 10.4424 6.31727 11.1456C6.04443 11.3715 5.79337 11.6226 5.5674 11.8954C4.86426 12.7444 4.55517 13.763 4.40801 15.0001C4.26471 16.2049 4.26472 17.7282 4.26474 19.6504V19.7095C4.26474 20.2065 4.66768 20.6095 5.16474 20.6095C5.66179 20.6095 6.06474 20.2065 6.06474 19.7095C6.06474 17.715 6.06623 16.2988 6.19541 15.2127C6.3222 14.1468 6.56102 13.5177 6.95368 13.0436C7.10789 12.8574 7.27921 12.6861 7.4654 12.5319C7.93951 12.1392 8.56866 11.9004 9.63457 11.7736C10.7206 11.6444 12.1368 11.6429 14.1313 11.6429H17.9722L13.5331 16.0236C13.1793 16.3728 13.1755 16.9426 13.5246 17.2964C13.8738 17.6502 14.4436 17.654 14.7974 17.3048L20.7977 11.3835C20.9691 11.2144 21.0656 10.9837 21.0656 10.7429C21.0656 10.5022 20.9691 10.2714 20.7977 10.1023L14.1974 3.58887C13.8436 3.23973 13.2737 3.24351 12.9246 3.5973Z" fill="black"/>
</svg>
