<svg width="25" height="24" viewBox="0 0 25 24" fill="none" xmlns="http://www.w3.org/2000/svg">
<path fill-rule="evenodd" clip-rule="evenodd" d="M4.54921 9.74998C4.34307 10.4643 4.23262 11.2193 4.23262 12C4.23262 12.7807 4.34307 13.5356 4.54921 14.25H7.95938C7.87761 13.5521 7.83262 12.8027 7.83262 12C7.83262 11.1973 7.87761 10.4479 7.95938 9.74998H4.54921ZM5.31625 7.94998H8.2728C8.63047 6.43374 9.17189 5.23133 9.76736 4.3146C7.87773 4.94503 6.29797 6.25289 5.31625 7.94998ZM12.3326 4.07646C11.6809 4.61026 10.71 5.8131 10.1273 7.94998H14.5379C13.9552 5.8131 12.9843 4.61026 12.3326 4.07646ZM14.8934 9.74998H9.77179C9.68313 10.4311 9.63262 11.1795 9.63262 12C9.63262 12.8204 9.68313 13.5689 9.77179 14.25H14.8934C14.9821 13.5689 15.0326 12.8204 15.0326 12C15.0326 11.1795 14.9821 10.4311 14.8934 9.74998ZM16.7059 14.25C16.7876 13.5521 16.8326 12.8027 16.8326 12C16.8326 11.1973 16.7876 10.4479 16.7059 9.74998H20.1163C20.3221 10.4635 20.4326 11.2182 20.4326 12C20.4326 12.7817 20.3221 13.5364 20.1163 14.25H16.7059ZM14.5379 16.05H10.1273C10.71 18.1868 11.6809 19.3897 12.3326 19.9235C12.9843 19.3897 13.9552 18.1868 14.5379 16.05ZM9.76736 19.6854C9.17189 18.7686 8.63047 17.5662 8.2728 16.05L5.31625 16.05C6.29797 17.7471 7.87773 19.0549 9.76736 19.6854ZM14.8979 19.6853C15.4934 18.7686 16.0348 17.5662 16.3924 16.05L19.3492 16.05C18.3673 17.7475 16.7872 19.055 14.8979 19.6853ZM19.3492 7.94998H16.3924C16.0348 6.43375 15.4934 5.23134 14.8979 4.31461C16.7872 4.94492 18.3673 6.25245 19.3492 7.94998ZM2.43262 12C2.43262 6.53236 6.865 2.09998 12.3326 2.09998C16.5826 2.09998 20.205 4.77764 21.609 8.53494C22.0125 9.61458 22.2326 10.7826 22.2326 12C22.2326 13.2174 22.0125 14.3854 21.609 15.465C20.205 19.2223 16.5826 21.9 12.3326 21.9C6.865 21.9 2.43262 17.4676 2.43262 12Z" fill="black" fill-opacity="0.8"/>
</svg>
