<svg width="24" height="24" viewBox="0 0 24 24" fill="none" xmlns="http://www.w3.org/2000/svg">
<path fill-rule="evenodd" clip-rule="evenodd" d="M3.32849 16.5466L3.32849 13.8911C3.32848 13.2902 3.32847 12.7917 3.35785 12.3836C3.38838 11.9595 3.45399 11.5639 3.621 11.1844C3.96896 10.3935 4.60067 9.76182 5.3915 9.41386C5.77107 9.24685 6.16659 9.18124 6.59073 9.15071C6.99885 9.12134 7.49738 9.12134 8.09823 9.12135H8.13056C8.62761 9.12135 9.03056 9.5243 9.03056 10.0214C9.03056 10.5184 8.62761 10.9214 8.13056 10.9214C7.4892 10.9214 7.05577 10.9219 6.71996 10.9461C6.39286 10.9696 6.22843 11.0121 6.11642 11.0614C5.73771 11.2281 5.4352 11.5306 5.26857 11.9093C5.21929 12.0213 5.17675 12.1857 5.15321 12.5128C5.12903 12.8486 5.12849 13.2821 5.12849 13.9234V16.5104C5.12849 17.2281 5.12917 17.7132 5.15927 18.0878C5.18854 18.4521 5.24127 18.6332 5.30293 18.7566C5.46303 19.077 5.72282 19.3368 6.04324 19.4969C6.16663 19.5586 6.34779 19.6113 6.71209 19.6406C7.08664 19.6707 7.57175 19.6714 8.28951 19.6714H15.3937C16.1115 19.6714 16.5966 19.6707 16.9711 19.6406C17.3354 19.6113 17.5166 19.5586 17.64 19.4969C17.9604 19.3368 18.2202 19.077 18.3803 18.7566C18.4419 18.6332 18.4947 18.4521 18.524 18.0878C18.5541 17.7132 18.5547 17.2281 18.5547 16.5104V14.0824C18.5547 13.3646 18.5541 12.8795 18.524 12.505C18.4947 12.1406 18.4419 11.9595 18.3803 11.8361C18.2202 11.5157 17.9604 11.2559 17.64 11.0958C17.5166 11.0341 17.3354 10.9814 16.9711 10.9521C16.5966 10.922 16.1115 10.9214 15.3937 10.9214H15.1161C14.619 10.9214 14.2161 10.5184 14.2161 10.0214C14.2161 9.5243 14.619 9.12135 15.1161 9.12135H15.43C16.1023 9.12134 16.6601 9.12133 17.1153 9.15791C17.5889 9.19597 18.0289 9.27791 18.4445 9.48561C19.1136 9.81994 19.6561 10.3624 19.9905 11.0315C20.1982 11.4472 20.2801 11.8871 20.3182 12.3608C20.3548 12.816 20.3547 13.3738 20.3547 14.0461V16.5466C20.3547 17.2189 20.3548 17.7767 20.3182 18.232C20.2801 18.7056 20.1982 19.1455 19.9905 19.5612C19.6561 20.2303 19.1136 20.7728 18.4445 21.1071C18.0289 21.3148 17.5889 21.3968 17.1153 21.4348C16.6601 21.4714 16.1023 21.4714 15.4299 21.4714H8.25327C7.58092 21.4714 7.02313 21.4714 6.56791 21.4348C6.09429 21.3968 5.65434 21.3148 5.23868 21.1071C4.56958 20.7728 4.02708 20.2303 3.69275 19.5612C3.48505 19.1455 3.40311 18.7056 3.36505 18.232C3.32847 17.7767 3.32848 17.2189 3.32849 16.5466ZM7.93293 7.14324C7.58026 6.79297 7.57832 6.22313 7.92859 5.87046L10.9848 2.79337C11.1537 2.62325 11.3836 2.52759 11.6233 2.52759C11.8631 2.52759 12.0929 2.62325 12.2619 2.79337L15.318 5.87046C15.6683 6.22313 15.6664 6.79297 15.3137 7.14324C14.961 7.49351 14.3912 7.49157 14.0409 7.1389L12.5233 5.61091L12.5233 15.2964C12.5233 15.7934 12.1204 16.1964 11.6233 16.1964C11.1263 16.1964 10.7233 15.7934 10.7233 15.2964V5.61091L9.20572 7.1389C8.85544 7.49157 8.2856 7.49351 7.93293 7.14324Z" fill="black"/>
</svg>
