<svg width="800" height="800" viewBox="0 0 800 800" fill="none" xmlns="http://www.w3.org/2000/svg">
<g clip-path="url(#clip0_2011_1268)">
<path d="M490.015 80.2389C487.107 114.325 457.659 138.573 424.725 136.262C391.92 133.96 366.444 104.544 368.735 71.0081C371.644 36.9363 401.071 12.6944 433.989 14.9852C468.062 17.8921 492.306 47.3196 490.015 80.2389Z" fill="#707579" stroke="#0E0E0E" stroke-width="10"/>
<path d="M527.407 319.12L527.974 320.249L529.01 320.973L618.205 383.347C624.643 388.784 628.637 396.647 628.135 404.688L628.131 404.748L628.129 404.808C627.625 417.897 615.436 427.854 601.823 426.283L601.538 426.25H601.25C598.167 426.25 594.129 424.878 590.148 422.629L494.455 357.384C491.978 354.9 489.613 352.421 488.222 349.639L488.211 349.616L488.199 349.593L463.199 300.843L456.91 288.581L453.873 302.023L424.498 432.023L423.949 434.452L425.557 436.353L541.502 573.493C543.603 577.264 545.245 581.608 546.38 585.532L577.5 750.468V750.477V750.498V750.519V750.541V750.562V750.583V750.604V750.626V750.647V750.668V750.689V750.71V750.731V750.752V750.773V750.794V750.815V750.836V750.857V750.878V750.899V750.92V750.94V750.961V750.982V751.003V751.023V751.044V751.065V751.085V751.106V751.127V751.147V751.168V751.188V751.209V751.229V751.25V751.27V751.29V751.311V751.331V751.351V751.372V751.392V751.412V751.432V751.453V751.473V751.493V751.513V751.533V751.553V751.573V751.594V751.614V751.634V751.654V751.674V751.693V751.713V751.733V751.753V751.773V751.793V751.813V751.832V751.852V751.872V751.892V751.911V751.931V751.951V751.97V751.99V752.01V752.029V752.049V752.068V752.088V752.107V752.127V752.146V752.166V752.185V752.205V752.224V752.243V752.263V752.282V752.301V752.321V752.34V752.359V752.378V752.397V752.417V752.436V752.455V752.474V752.493V752.512V752.531V752.55V752.57V752.589V752.608V752.627V752.646V752.664V752.683V752.702V752.721V752.74V752.759V752.778V752.797V752.815V752.834V752.853V752.872V752.891V752.909V752.928V752.947V752.965V752.984V753.003V753.021V753.04V753.059V753.077V753.096V753.114V753.133V753.151V753.17V753.188V753.207V753.225V753.244V753.262V753.281V753.299V753.317V753.336V753.354V753.372V753.391V753.409V753.427V753.446V753.464V753.482V753.5V753.519V753.537V753.555V753.573V753.591V753.61V753.628V753.646V753.664V753.682V753.7V753.718V753.736V753.754V753.772V753.79V753.808V753.826V753.844V753.862V753.88V753.898V753.916V753.934V753.952V753.97V753.988V754.006V754.024V754.042V754.059V754.077V754.095V754.113V754.131V754.148V754.166V754.184V754.202V754.22V754.237V754.255V754.273V754.291V754.308V754.326V754.344V754.361V754.379V754.397V754.414V754.432V754.449V754.467V754.485V754.502V754.52V754.537V754.555V754.573V754.59V754.608V754.625V754.643V754.66V754.678V754.695V754.713V754.73V754.748V754.765V754.783V754.8V754.818V754.835V754.852V754.87V754.887V754.905V754.922V754.939V754.957V754.974V754.992V755.009V755.026V755.044V755.061V755.078V755.096V755.113V755.13V755.148V755.165V755.182V755.199V755.217V755.234V755.251V755.269V755.286V755.303V755.32V755.338V755.355V755.372V755.389V755.407V755.424V755.441V755.458V755.475V755.493V755.51V755.527V755.544V755.561V755.579V755.596V755.613V755.63V755.647V755.664V755.682V755.699V755.716V755.733V755.75V755.767V755.785V755.802V755.819V755.836V755.853V755.87V755.887V755.904V755.922V755.939V755.956V755.973V755.99V756.007V756.024V756.041V756.059V756.076V756.093V756.11V756.127V756.144V756.161V756.178V756.195V756.212V756.229V756.247V756.264V756.281V756.298V756.315V756.332V756.349V756.366V756.383V756.4V756.417V756.435V756.452V756.469V756.486V756.503V756.52V756.537V756.554V756.571V756.588V756.606V756.623V756.64V756.657V756.674V756.691V756.708V756.725V756.742V756.759V756.777V756.794V756.811V756.828V756.845V756.862V756.879V756.896V756.914V756.931V756.948V756.965V756.982V756.999V757.016V757.034V757.051V757.068V757.085V757.102V757.119V757.136V757.154V757.171V757.188V757.205V757.222V757.24V757.257V757.274V757.291V757.308V757.326V757.343V757.36V757.377V757.394V757.412V757.429V757.446V757.463V757.481V757.498V757.515V757.532V757.55V757.567V757.584V757.602V757.619V757.636V757.654V757.671V757.688V757.706V757.723V757.74V757.758V757.775V757.792V757.81V757.827V757.844V757.862V757.879V757.897V757.914V757.931V757.949V757.966V757.984V758.001V758.019V758.036V758.054V758.071V758.089V758.106V758.124V758.141V758.159V758.176V758.194V758.211V758.229V758.246V758.264V758.282V758.299V758.317V758.334V758.352V758.37V758.387V758.405V758.423V758.44V758.458V758.476V758.493V758.511V758.529V758.547V758.564V758.582V758.6V758.618V758.635V758.653V758.671V758.689V758.707V758.725V758.742V758.76V758.778V758.796V758.814V758.832V758.85V758.868V758.886V758.904V758.922V758.94V758.958V758.976V758.994V759.012V759.03V759.048V759.066V759.084V759.102V759.12V759.138V759.156V759.175V759.182C575.763 781.069 557.186 796.112 535.298 795.631C517.76 793.914 504.431 781.334 499.877 764.508L470.537 610.315L470.276 608.945L469.344 607.908L374.969 502.908L368.439 495.643L366.364 505.188L344.489 605.813L344.451 605.989L344.425 606.168C344.382 606.473 344.119 607.347 343.39 608.889C342.715 610.316 341.817 611.956 340.827 613.671C340.16 614.825 339.405 616.085 338.665 617.318C337.446 619.351 336.271 621.311 335.61 622.601L245.776 775.444C237.115 788.071 224.384 796.022 209.283 794.404L209.203 794.395L209.124 794.389C186.861 792.719 170.832 773.86 172.484 752.275C172.973 746.441 175.195 741.493 177.555 736.238C177.767 735.765 177.981 735.29 178.194 734.812L262.412 594.448L262.826 593.758L263.003 592.974L333.003 282.349L336.163 268.325L324.982 277.361L279.357 314.236L278.006 315.328L277.623 317.023L252.623 427.648L252.6 427.751L252.581 427.856C250.508 439.254 238.861 449.271 226.458 448.754L226.45 448.754L226.442 448.754C213.395 448.252 203.21 436.024 203.746 422.067L203.75 421.971V421.875C203.75 421.582 203.752 421.194 203.798 420.787C203.82 420.588 203.847 420.435 203.872 420.332C203.876 420.314 203.88 420.3 203.883 420.289L204.126 419.802L204.26 419.192L232.326 290.709C233.97 285.868 235.985 282.542 239.875 279.625L239.956 279.564L240.034 279.501L371.829 172.066C383.334 163.465 397.754 158.811 414.071 159.367C434.041 161.125 451.987 173.725 461.912 188.754L527.407 319.12Z" fill="#707579" stroke="black" stroke-width="10"/>
</g>
<defs>
<clipPath id="clip0_2011_1268">
<rect width="800" height="800" fill="white"/>
</clipPath>
</defs>
</svg>
